<svg xmlns="http://www.w3.org/2000/svg" width="24.001" height="24" viewBox="0 0 24.001 24"><defs><style>.a{fill:#d1ad3c;}</style></defs><g transform="translate(-242.502 -243.5)"><path class="a" d="M256.23,252.3v-1.735h-1.735a.523.523,0,0,1-.371-.154l-1.227-1.226-1.227,1.226a.522.522,0,0,1-.371.154h-1.735V252.3a.519.519,0,0,1-.154.371l-1.226,1.227,1.226,1.227a.522.522,0,0,1,.154.371v1.735H251.3a.522.522,0,0,1,.371.154l1.227,1.226,1.227-1.226a.523.523,0,0,1,.371-.154h1.735v-1.735a.522.522,0,0,1,.154-.371l1.226-1.227-1.226-1.227A.522.522,0,0,1,256.23,252.3Z" transform="translate(1.605 1.605)"/><path class="a" d="M266.3,255l-3.1-3.1v-4.388a.7.7,0,0,0-.7-.7H258.1l-3.1-3.1a.7.7,0,0,0-.994,0l-3.1,3.1h-4.388a.7.7,0,0,0-.7.7V251.9l-3.1,3.1a.7.7,0,0,0,0,.994l3.1,3.1v4.388a.7.7,0,0,0,.7.7H250.9l3.1,3.1a.7.7,0,0,0,.994,0l3.1-3.1h4.388a.7.7,0,0,0,.7-.7V259.1l3.1-3.1A.7.7,0,0,0,266.3,255Zm-3.984.994-1.936,1.936v2.738a.7.7,0,0,1-.7.7h-2.738L255,263.31a.7.7,0,0,1-.994,0l-1.936-1.936h-2.738a.7.7,0,0,1-.7-.7v-2.738L246.692,256a.7.7,0,0,1,0-.994l1.936-1.936v-2.738a.7.7,0,0,1,.7-.7h2.738l1.936-1.936a.7.7,0,0,1,.994,0l1.936,1.936h2.738a.7.7,0,0,1,.7.7v2.738L262.312,255A.7.7,0,0,1,262.312,256Z"/></g></svg>