<svg id="noun-lake-2285950" xmlns="http://www.w3.org/2000/svg" width="39.589" height="39.587" viewBox="0 0 39.589 39.587">
  <path id="Path_1328" data-name="Path 1328" d="M131.315,401.379a6.629,6.629,0,0,0,4.825-2.08,6.637,6.637,0,0,0,9.65,0,6.637,6.637,0,0,0,9.65,0,6.65,6.65,0,0,0,10.036-.432.495.495,0,0,0-.773-.618,5.673,5.673,0,0,1-8.877,0,.514.514,0,0,0-.042-.035.126.126,0,0,0-.075-.063.457.457,0,0,0-.088-.045.464.464,0,0,0-.089-.028.508.508,0,0,0-.091-.008.476.476,0,0,0-.1.008.5.5,0,0,0-.085.027.465.465,0,0,0-.09.046c-.012.008-.027.01-.039.02a.5.5,0,0,0-.035.042.418.418,0,0,0-.042.036,5.673,5.673,0,0,1-8.877,0,.493.493,0,0,0-.042-.035.409.409,0,0,0-.036-.042c-.012-.01-.027-.012-.039-.02a.485.485,0,0,0-.088-.045.492.492,0,0,0-.089-.028.508.508,0,0,0-.091-.008.475.475,0,0,0-.1.008.465.465,0,0,0-.085.027.492.492,0,0,0-.091.047.388.388,0,0,0-.038.02.41.41,0,0,0-.035.042.458.458,0,0,0-.042.036,5.673,5.673,0,0,1-8.877,0,.489.489,0,0,0-.042-.035.406.406,0,0,0-.036-.042c-.012-.01-.027-.012-.039-.02a.484.484,0,0,0-.088-.045.42.42,0,0,0-.18-.036.472.472,0,0,0-.1.008.509.509,0,0,0-.085.027.47.47,0,0,0-.09.046c-.012.008-.027.01-.039.02a.5.5,0,0,0-.035.042.407.407,0,0,0-.042.035,5.673,5.673,0,0,1-8.877,0,.495.495,0,0,0-.773.618,6.641,6.641,0,0,0,5.212,2.513Z" transform="translate(-125.995 -367.836)"/>
  <path id="Path_1329" data-name="Path 1329" d="M126.112,467.286a6.65,6.65,0,0,0,10.036.432,6.636,6.636,0,0,0,9.649,0,6.637,6.637,0,0,0,9.65,0,6.65,6.65,0,0,0,10.036-.432.495.495,0,1,0-.773-.618,5.673,5.673,0,0,1-8.877,0,.493.493,0,0,0-.042-.035.459.459,0,0,0-.035-.042c-.012-.01-.027-.012-.039-.02a.469.469,0,0,0-.089-.046.48.48,0,0,0-.088-.027.46.46,0,0,0-.274.027.465.465,0,0,0-.09.046.352.352,0,0,0-.039.019.515.515,0,0,0-.035.042.4.4,0,0,0-.042.036,5.673,5.673,0,0,1-8.876,0,.488.488,0,0,0-.042-.035.464.464,0,0,0-.035-.042c-.012-.009-.027-.012-.039-.02a.559.559,0,0,0-.176-.073.489.489,0,0,0-.093-.008.456.456,0,0,0-.095.008.515.515,0,0,0-.085.027.492.492,0,0,0-.091.047c-.012.008-.027.01-.038.02a.422.422,0,0,0-.035.042.457.457,0,0,0-.042.035,5.674,5.674,0,0,1-8.877,0,.524.524,0,0,0-.042-.035.518.518,0,0,0-.035-.042c-.012-.009-.026-.012-.039-.02a.478.478,0,0,0-.089-.046.473.473,0,0,0-.087-.027.489.489,0,0,0-.093-.008.48.48,0,0,0-.095.008.488.488,0,0,0-.086.027.463.463,0,0,0-.09.046c-.012.008-.026.01-.038.02a.518.518,0,0,0-.035.042.414.414,0,0,0-.042.035,5.673,5.673,0,0,1-8.877,0,.495.495,0,1,0-.773.618Z" transform="translate(-126.003 -430.21)"/>
  <path id="Path_1330" data-name="Path 1330" d="M165.1,112.863H143.575v-6.3A6.606,6.606,0,1,0,139,94.789a6.609,6.609,0,1,0-6.884,8.28v9.8H126.5a.495.495,0,0,0,0,.99h38.6a.495.495,0,1,0,0-.99ZM148.7,99.982a5.626,5.626,0,0,1-5.126,5.6V103.1l2.78-2.78a.495.495,0,0,0-.7-.7l-2.08,2.08v-3.57a.495.495,0,0,0-.99,0v3.57l-2.08-2.08a.495.495,0,0,0-.7.7l2.78,2.78v2.472a5.619,5.619,0,1,1,6.115-5.6Zm-21.707-3.5a5.621,5.621,0,0,1,11.168-.9,6.576,6.576,0,0,0-1.692,4.4c0,.188.013.373.028.558a5.57,5.57,0,0,1-3.389,1.54V99.606l2.78-2.78a.495.495,0,1,0-.7-.7l-2.08,2.08v-3.57a.495.495,0,0,0-.99,0v3.57l-2.08-2.08a.495.495,0,0,0-.7.7l2.78,2.78v2.472a5.625,5.625,0,0,1-5.126-5.595Zm6.115,6.586a6.539,6.539,0,0,0,3.589-1.394,6.615,6.615,0,0,0,5.887,4.891v6.3h-9.476Z" transform="translate(-126.004 -86.88)"/>
  <path id="Path_1331" data-name="Path 1331" d="M455.229,105.035a3.757,3.757,0,1,0-3.757,3.757A3.761,3.761,0,0,0,455.229,105.035Zm-3.757,2.767a2.767,2.767,0,1,1,2.767-2.767A2.77,2.77,0,0,1,451.473,107.8Z" transform="translate(-419.287 -97.277)"/>
  <path id="Path_1332" data-name="Path 1332" d="M485.617,58.166V56.494a.495.495,0,1,0-.99,0v1.672a.495.495,0,1,0,.99,0Z" transform="translate(-452.936 -55.999)"/>
  <path id="Path_1333" data-name="Path 1333" d="M437.4,73.835a.495.495,0,1,0,.8-.582L437.22,71.9a.495.495,0,0,0-.8.582Z" transform="translate(-408.902 -70.309)"/>
  <path id="Path_1334" data-name="Path 1334" d="M408.7,113.329l-1.59-.517a.495.495,0,0,0-.306.941l1.59.517a.495.495,0,1,0,.306-.941Z" transform="translate(-381.678 -107.77)"/>
  <path id="Path_1335" data-name="Path 1335" d="M408.4,157.771l-1.59.517a.495.495,0,1,0,.306.941l1.59-.517a.495.495,0,0,0-.306-.941Z" transform="translate(-381.681 -148.756)"/>
  <path id="Path_1336" data-name="Path 1336" d="M436.523,191.618a.495.495,0,0,0,.691-.109l.983-1.353a.495.495,0,0,0-.8-.582l-.983,1.353A.5.5,0,0,0,436.523,191.618Z" transform="translate(-408.898 -177.584)"/>
  <path id="Path_1337" data-name="Path 1337" d="M484.63,201.953v1.672a.495.495,0,1,0,.99,0v-1.672a.495.495,0,1,0-.99,0Z" transform="translate(-452.939 -188.605)"/>
  <path id="Path_1338" data-name="Path 1338" d="M522.889,191.5a.495.495,0,1,0,.8-.582l-.983-1.353a.495.495,0,0,0-.8.582Z" transform="translate(-486.834 -177.581)"/>
  <path id="Path_1339" data-name="Path 1339" d="M547.039,158.281l-1.59-.517a.495.495,0,1,0-.306.941l1.59.517a.495.495,0,1,0,.306-.941Z" transform="translate(-507.793 -148.75)"/>
  <path id="Path_1340" data-name="Path 1340" d="M547.361,113.134a.5.5,0,0,0-.624-.318l-1.59.517a.495.495,0,1,0,.306.941l1.59-.517A.5.5,0,0,0,547.361,113.134Z" transform="translate(-507.797 -107.773)"/>
  <path id="Path_1341" data-name="Path 1341" d="M523.591,71.794a.5.5,0,0,0-.691.109l-.983,1.353a.495.495,0,1,0,.8.582l.983-1.353A.5.5,0,0,0,523.591,71.794Z" transform="translate(-486.845 -70.312)"/>
</svg>
