<svg class="me-2" xmlns="http://www.w3.org/2000/svg" width="29.806" height="30.035"
                                        viewBox="0 0 29.806 30.035">
                                        <g id="call" transform="translate(0.001 0.512) rotate(-1)">
                                            <g id="Group_814" data-name="Group 814" transform="translate(-0.001 -0.001)">
                                                <g id="Group_813" data-name="Group 813" transform="translate(0 0)">
                                                    <path id="Path_1241" data-name="Path 1241"
                                                        d="M28.526,22.778,22.6,18.792a1.722,1.722,0,0,0-2.318.38l-1.728,2.239a.735.735,0,0,1-.947.2l-.329-.183a19.866,19.866,0,0,1-5.175-4.1,20.075,20.075,0,0,1-4.064-5.216l-.18-.331a.749.749,0,0,1,.2-.958l2.22-1.741a1.755,1.755,0,0,0,.377-2.336L6.7.774A1.713,1.713,0,0,0,4.375.248l-2.48,1.5A3.524,3.524,0,0,0,.3,3.837c-.893,3.28-.222,8.94,8.048,17.277,6.579,6.631,11.477,8.414,14.844,8.413a8.586,8.586,0,0,0,2.295-.3,3.5,3.5,0,0,0,2.07-1.608l1.491-2.5A1.744,1.744,0,0,0,28.526,22.778Zm-.32,1.836-1.488,2.5a2.527,2.527,0,0,1-1.489,1.164c-3,.832-8.251.144-16.191-7.86S.416,7.125,1.241,4.1A2.546,2.546,0,0,1,2.4,2.594l2.48-1.5a.743.743,0,0,1,1.007.228L8.032,4.573,9.835,7.3a.762.762,0,0,1-.163,1.014l-2.22,1.741A1.732,1.732,0,0,0,7,12.264l.176.323a20.854,20.854,0,0,0,4.231,5.442,20.742,20.742,0,0,0,5.4,4.265l.321.178a1.7,1.7,0,0,0,2.193-.456l1.727-2.238a.748.748,0,0,1,1.006-.165L27.98,23.6A.756.756,0,0,1,28.206,24.614Z"
                                                        transform="translate(0.001 0.001)" fill="#fff" />
                                                </g>
                                            </g>
                                        </g>
                                    </svg>