<svg xmlns="http://www.w3.org/2000/svg" width="24.171" height="31.958" viewBox="0 0 24.171 31.958">
  <g id="noun-security-1278985" transform="translate(0 0)">
    <path id="Path_1357" data-name="Path 1357" d="M192.571,88.864l1.273.894h0a.4.4,0,0,0,.467,0l1.273-.9a58.642,58.642,0,0,0,6.663-5.156c2.671-2.55,3.916-4.923,3.916-7.468v-9.8a4.431,4.431,0,0,0-2.328-3.9l-7.654-4.125h0a4.431,4.431,0,0,0-4.206,0l-7.654,4.125h0a4.431,4.431,0,0,0-2.328,3.9v9.8c0,2.546,1.245,4.919,3.916,7.468a58.714,58.714,0,0,0,6.663,5.16ZM182.8,76.234v-9.8a3.625,3.625,0,0,1,1.905-3.19l7.654-4.125h0a3.624,3.624,0,0,1,3.44,0l7.654,4.125h0a3.625,3.625,0,0,1,1.905,3.19v9.8c0,2.308-1.164,4.5-3.666,6.885a57.517,57.517,0,0,1-6.57,5.08l-1.043.737-1.043-.733a56.15,56.15,0,0,1-6.574-5.084c-2.5-2.385-3.662-4.572-3.662-6.885Z" transform="translate(-181.992 -57.874)"/>
    <path id="Path_1358" data-name="Path 1358" d="M261.945,219.546a.383.383,0,0,0,.568.028l8.46-8.242h0a.4.4,0,0,0-.564-.576l-8.13,7.94-3.759-4.383a.4.4,0,1,0-.612.512Z" transform="translate(-252.324 -199.651)"/>
  </g>
</svg>
