<svg class="me-1" xmlns="http://www.w3.org/2000/svg" width="14.826" height="16.163" viewBox="0 0 14.826 16.163">
    <g fill="white" id="export" transform="translate(-68.891 0)">
        <path id="Path_1250" data-name="Path 1250" d="M83.1,172.228H81.246v.908h1.236v8.17H70.127v-8.17h1.236v-.908H69.509c-.341,0-.618.2-.618.454v9.077c0,.251.276.454.618.454H83.1c.341,0,.618-.2.618-.454v-9.077C83.717,172.431,83.441,172.228,83.1,172.228Z" transform="translate(0 -166.05)"></path>
        <path id="Path_1251" data-name="Path 1251" d="M163.577,2.365V11.12h1.236V2.365l2.652,2.652.874-.874L164.194,0l-4.143,4.143.874.874Z" transform="translate(-87.89)"></path>
    </g>
</svg>