<svg xmlns="http://www.w3.org/2000/svg" width="24" height="24" viewBox="0 0 24 24"><defs><style>.a,.b{fill:#d1ad3c;}.a{opacity:0;}</style></defs><g transform="translate(-26 -13)"><path class="a" d="M0,0H24V24H0Z" transform="translate(26 13)"/><g transform="translate(25.82 13.842)"><path class="b" d="M12.584,1.158A4.823,4.823,0,0,0,7.76,5.981h0a4.824,4.824,0,1,0,4.824-4.824Z"/><path class="b" d="M12.61,11.73c-3.21,0-8.43,1.61-8.43,4.82v2.61a2,2,0,0,0,2,2H19.04a2,2,0,0,0,2-2V16.55C21.04,13.34,15.82,11.73,12.61,11.73Z"/></g></g></svg>