<svg xmlns="http://www.w3.org/2000/svg" width="30.294" height="19.089" viewBox="0 0 30.294 19.089">
  <path id="video-camera" d="M29.98,1.7a.642.642,0,0,0-.635-.012l-6.951,3.8V3.209A3.213,3.213,0,0,0,19.184,0H3.209A3.213,3.213,0,0,0,0,3.209V15.88a3.213,3.213,0,0,0,3.209,3.209H19.184a3.213,3.213,0,0,0,3.209-3.209V13.644l6.951,3.8a.642.642,0,0,0,.949-.563V2.254A.642.642,0,0,0,29.98,1.7ZM21.109,15.88a1.927,1.927,0,0,1-1.925,1.925H3.209A1.928,1.928,0,0,1,1.284,15.88V3.209A1.928,1.928,0,0,1,3.209,1.284H19.184A1.928,1.928,0,0,1,21.11,3.209Zm7.9-.086-6.617-3.613V6.949L29.01,3.336Zm0,0" fill="#707070"/>
</svg>
