<svg xmlns="http://www.w3.org/2000/svg" width="40.285" height="26.221" viewBox="0 0 40.285 26.221">
  <path id="Path_1342" data-name="Path 1342" d="M129.242,123.2a26.843,26.843,0,0,0-20.017,8.575.476.476,0,1,0,.7.644,26.664,26.664,0,0,1,38.63,0,.476.476,0,1,0,.7-.644,26.843,26.843,0,0,0-20.017-8.575Zm0,7.96a19.088,19.088,0,0,0-13.916,5.765.468.468,0,1,0,.673.644,18.759,18.759,0,0,1,26.486,0,.468.468,0,1,0,.673-.644,19.087,19.087,0,0,0-13.916-5.765Zm0,7.492a11.261,11.261,0,0,0-7.814,2.941.468.468,0,1,0,.644.673,10.938,10.938,0,0,1,14.34,0,.468.468,0,1,0,.644-.673,11.261,11.261,0,0,0-7.814-2.941Zm0,6.087a2.341,2.341,0,1,0,2.341,2.341A2.348,2.348,0,0,0,129.242,144.739Zm0,.936a1.4,1.4,0,1,1-1.4,1.4A1.4,1.4,0,0,1,129.242,145.675Z" transform="translate(-109.099 -123.2)"/>
</svg>
