<svg xmlns="http://www.w3.org/2000/svg" width="26.455" height="29.636"
                            viewBox="0 0 26.455 29.636">
                            <path id="Path_1347" data-name="Path 1347"
                                d="M265.974,175.448l-.047-1.336-6.111.213-4.9-2.832,4.9-2.832,6.111.213.047-1.336L262,167.4l4.635-2.671-.668-1.162-4.635,2.678,1.863-3.506-1.175-.628-2.872,5.4-4.9,2.832v-5.664l3.239-5.183-1.136-.708-2.1,3.366V156.8H252.91v5.35l-2.1-3.366-1.136.708,3.239,5.183v5.664l-4.9-2.832-2.872-5.4-1.175.628,1.864,3.506-4.635-2.678-.668,1.162,4.635,2.671-3.974.14.047,1.336,6.111-.213,4.9,2.832-4.9,2.832-6.111-.213-.047,1.336,3.974.14-4.635,2.671.668,1.162,4.635-2.678-1.864,3.506,1.175.628,2.872-5.4,4.9-2.832v5.664l-3.239,5.183,1.136.708,2.1-3.366v5.35h1.336v-5.35l2.1,3.366,1.136-.708-3.239-5.183v-5.664l4.9,2.832,2.872,5.4,1.175-.628-1.863-3.506,4.635,2.678.668-1.162L262,175.588Z"
                                transform="translate(-240.35 -156.676)" stroke="#fff" stroke-width="0.25" />
                        </svg>