<svg id="noun-menu-1151129" xmlns="http://www.w3.org/2000/svg" width="15.495" height="15.727" viewBox="0 0 10.495 12.727">
                            <path id="Path_1348" data-name="Path 1348" d="M89.024,38.1a1.1,1.1,0,1,1-1.1-1.1,1.1,1.1,0,0,1,1.1,1.1" transform="translate(-86.818 -36.963)" fill="#747474" fill-rule="evenodd"/>
                            <path id="Path_1349" data-name="Path 1349" d="M300.914,38.1a1.1,1.1,0,1,1-1.1-1.1,1.1,1.1,0,0,1,1.1,1.1" transform="translate(-294.497 -36.963)" fill="#747474" fill-rule="evenodd"/>
                            <path id="Path_1350" data-name="Path 1350" d="M506.078,36.419a1.1,1.1,0,1,1-1.1-1.1,1.1,1.1,0,0,1,1.1,1.1" transform="translate(-495.583 -35.316)" fill="#747474" fill-rule="evenodd"/>
                            <path id="Path_1351" data-name="Path 1351" d="M89.024,219.717a1.1,1.1,0,1,1-1.1-1.1,1.1,1.1,0,0,1,1.1,1.1" transform="translate(-86.818 -214.971)" fill="#747474" fill-rule="evenodd"/>
                            <path id="Path_1352" data-name="Path 1352" d="M300.914,219.717a1.1,1.1,0,1,1-1.1-1.1,1.1,1.1,0,0,1,1.1,1.1" transform="translate(-294.497 -214.971)" fill="#747474" fill-rule="evenodd"/>
                            <path id="Path_1353" data-name="Path 1353" d="M506.078,218.037a1.1,1.1,0,1,1-1.1-1.1,1.1,1.1,0,0,1,1.1,1.1" transform="translate(-495.583 -213.324)" fill="#747474" fill-rule="evenodd"/>
                            <path id="Path_1354" data-name="Path 1354" d="M89.024,414.8a1.1,1.1,0,1,1-1.1-1.1,1.1,1.1,0,0,1,1.1,1.1" transform="translate(-86.818 -406.177)" fill="#747474" fill-rule="evenodd"/>
                            <path id="Path_1355" data-name="Path 1355" d="M300.914,414.8a1.1,1.1,0,1,1-1.1-1.1,1.1,1.1,0,0,1,1.1,1.1" transform="translate(-294.497 -406.177)" fill="#747474" fill-rule="evenodd"/>
                            <path id="Path_1356" data-name="Path 1356" d="M506.078,414.8a1.1,1.1,0,1,1-1.1-1.1,1.1,1.1,0,0,1,1.1,1.1" transform="translate(-495.583 -406.177)" fill="#747474" fill-rule="evenodd"/>
                          </svg>