<svg xmlns="http://www.w3.org/2000/svg" width="39.404" height="28.769"
                            viewBox="0 0 39.404 28.769">
                            <path id="Path_1343" data-name="Path 1343"
                                d="M123.275,142.035V138.5h5.1a2.524,2.524,0,1,0,4.524-1.97l6.978-7.523,13.7,4.241a.391.391,0,0,0,.151.02.471.471,0,0,0,.232-.061.465.465,0,0,0,.242-.293l.444-1.444,2.414.747a1.409,1.409,0,0,0,.444.071,1.509,1.509,0,0,0,1.444-1.07l1.8-5.787a.52.52,0,0,0-.333-.636l-.666-.2,1.778-1.858a.5.5,0,0,0-.222-.828l-26.015-8.069a1.477,1.477,0,0,0-1.151.111,1.53,1.53,0,0,0-.737.889l-2.989,9.644a1.527,1.527,0,0,0,1,1.9l7.412,2.292-6.655,7.17a2.517,2.517,0,0,0-3.787,1.646h-5.11v-3.534a.5.5,0,0,0-1.01,0v8.079a.5.5,0,0,0,1.01,0Zm34.739-11.109a.511.511,0,0,1-.636.333l-2.414-.747.414-1.333,3.605-3.767.666.2Zm-26.317-5.5a.511.511,0,0,1-.333-.636l2.989-9.644a.5.5,0,0,1,.242-.293.471.471,0,0,1,.232-.061.777.777,0,0,1,.152.02l25.267,7.826-5.686,5.928a.668.668,0,0,0-.121.2l-1.05,3.373Zm-.848,11.058A1.515,1.515,0,1,1,129.335,138,1.513,1.513,0,0,1,130.849,136.481Z"
                                transform="translate(-122.266 -113.772)" />
                        </svg>