<svg xmlns="http://www.w3.org/2000/svg" width="34.951" height="29.299"
                            viewBox="0 0 34.951 29.299">
                            <path id="Path_1345" data-name="Path 1345"
                                d="M122.651,67H95.91v29.3h34.95V84.417h-8.934a.576.576,0,0,0-.557-.431h-3.127a.576.576,0,0,0-.557.431h-1.164a.576.576,0,0,0-.557-.431h-3.127a.576.576,0,0,0-.557.431h-.725V74.668h11.864v-2.14h7.439V67Zm-21.8,28.528H96.68V67.765h4.171Zm10.706-27.758h11.093v3.993H111.558Zm11.093,27.758H111.558V87.589h11.093Zm.77-6.616h6.669v2.918h-6.669Zm6.669,6.616h-6.669V92.606h6.669Zm-6.669-10.336h6.669v2.918h-6.669Zm-.77,0v1.632H111.558V85.188Zm-11.864-.77V95.523h-9.166V67.766h9.166ZM122.651,73.9H111.558V72.529h11.093Zm7.439-6.132v3.993h-6.668V67.766Z"
                                transform="translate(-95.91 -66.995)" />
                        </svg>